<svg width="35" height="36" viewBox="0 0 35 36" fill="none" xmlns="http://www.w3.org/2000/svg">
<g clip-path="url(#clip0_1_33)">
<path d="M34.8925 34.7695C34.8925 35.0977 34.7967 35.3848 34.6052 35.6309C34.4137 35.877 34.149 36 33.8111 36C33.5183 36 33.2648 35.8887 33.0508 35.666L19.7874 21.8848C18.7061 22.8105 17.5233 23.5195 16.2392 24.0117C14.9551 24.5039 13.6035 24.75 12.1842 24.75C11.0916 24.75 10.0384 24.6035 9.02462 24.3105C8.01086 24.0176 7.06468 23.6016 6.18609 23.0625C5.30749 22.5234 4.50775 21.8789 3.78685 21.1289C3.06595 20.3789 2.4408 19.541 1.91139 18.6152C1.38198 17.6895 0.982106 16.7051 0.711769 15.6621C0.441432 14.6191 0.300632 13.5234 0.289368 12.375C0.289368 11.2383 0.430168 10.1426 0.711769 9.08789C0.99337 8.0332 1.39324 7.04883 1.91139 6.13477C2.42953 5.2207 3.04906 4.38867 3.76995 3.63867C4.49085 2.88867 5.29623 2.23828 6.18609 1.6875C7.07595 1.13672 8.02213 0.720703 9.02462 0.439453C10.0271 0.158203 11.0803 0.0117188 12.1842 0C13.2768 0 14.33 0.146484 15.3437 0.439453C16.3575 0.732422 17.3037 1.14844 18.1823 1.6875C19.0609 2.22656 19.8606 2.87109 20.5815 3.62109C21.3024 4.37109 21.9276 5.20898 22.457 6.13477C22.9864 7.06055 23.3863 8.04492 23.6566 9.08789C23.9269 10.1309 24.0677 11.2266 24.079 12.375C24.079 13.8398 23.8425 15.2402 23.3694 16.5762C22.8963 17.9121 22.2148 19.1484 21.3249 20.2852L22.288 21.2871C22.7611 21.7793 23.3356 22.3652 24.0114 23.0449C24.6873 23.7246 25.4194 24.4688 26.2079 25.2773C26.9964 26.0859 27.7961 26.9121 28.6071 27.7559C29.4182 28.5996 30.201 29.4199 30.9557 30.2168C31.7104 31.0137 32.3806 31.7344 32.9663 32.3789C33.5521 33.0234 34.0195 33.5566 34.3687 33.9785C34.7179 34.4004 34.8925 34.6641 34.8925 34.7695ZM12.1842 22.5C13.5246 22.5 14.7862 22.2363 15.9689 21.709C17.1516 21.1816 18.1823 20.4551 19.0609 19.5293C19.9395 18.6035 20.6322 17.5312 21.1391 16.3125C21.646 15.0938 21.905 13.7812 21.9163 12.375C21.9163 10.9805 21.6629 9.66797 21.156 8.4375C20.6491 7.20703 19.9507 6.13477 19.0609 5.2207C18.171 4.30664 17.1404 3.58594 15.9689 3.05859C14.7974 2.53125 13.5359 2.26172 12.1842 2.25C10.8438 2.25 9.58219 2.51367 8.39947 3.04102C7.21675 3.56836 6.18609 4.29492 5.30749 5.2207C4.4289 6.14648 3.73616 7.21875 3.22928 8.4375C2.7224 9.65625 2.46333 10.9688 2.45206 12.375C2.45206 13.7695 2.7055 15.082 3.21238 16.3125C3.71927 17.543 4.41763 18.6152 5.30749 19.5293C6.19735 20.4434 7.22801 21.1641 8.39947 21.6914C9.57093 22.2188 10.8325 22.4883 12.1842 22.5Z" fill="#03D764"/>
</g>
<defs>
<clipPath id="clip0_1_33">
<rect width="34.6031" height="36" fill="white" transform="translate(0.289368)"/>
</clipPath>
</defs>
</svg>
