<svg width="49" height="49" viewBox="0 0 49 49" fill="none" xmlns="http://www.w3.org/2000/svg">
<g id="maki:arrow">
<path id="Vector" d="M21.9096 41.5095C21.297 42.1219 20.4662 42.466 19.6 42.466C18.7338 42.466 17.9031 42.1219 17.2905 41.5095L2.5905 26.8095C1.9781 26.197 1.63407 25.3662 1.63407 24.5C1.63407 23.6338 1.9781 22.8031 2.5905 22.1905L17.2905 7.49047C17.9066 6.89542 18.7318 6.56616 19.5883 6.57361C20.4448 6.58105 21.2641 6.9246 21.8698 7.53026C22.4754 8.13593 22.819 8.95526 22.8264 9.81176C22.8339 10.6683 22.5046 11.4934 21.9096 12.1095L13.0667 21.2333L44.1 21.2333C44.9664 21.2333 45.7973 21.5775 46.4099 22.1901C47.0225 22.8027 47.3667 23.6336 47.3667 24.5C47.3667 25.3664 47.0225 26.1973 46.4099 26.8099C45.7973 27.4225 44.9664 27.7667 44.1 27.7667L13.0667 27.7667L21.9096 36.8905C22.522 37.5031 22.866 38.3338 22.866 39.2C22.866 40.0662 22.522 40.8969 21.9096 41.5095Z" fill="black"/>
</g>
</svg>
